<?xml version="1.0" standalone="no"?>
<!DOCTYPE svg PUBLIC "-//W3C//DTD SVG 20010904//EN"
 "http://www.w3.org/TR/2001/REC-SVG-20010904/DTD/svg10.dtd">
<svg version="1.0" xmlns="http://www.w3.org/2000/svg"
 width="345.000000pt" height="146.000000pt" viewBox="0 0 345.000000 146.000000"
 preserveAspectRatio="xMidYMid meet">
<metadata>
Created by potrace 1.16, written by Peter Selinger 2001-2019
</metadata>
<g transform="translate(0.000000,146.000000) scale(0.100000,-0.100000)"
fill="#000000" stroke="none">
<path d="M245 1000 c-4 -7 105 -302 118 -317 7 -9 49 -13 149 -13 139 0 139 0
136 -22 -3 -22 -7 -23 -123 -26 -66 -1 -123 -6 -128 -11 -4 -4 -3 -20 2 -35
l11 -27 147 3 148 3 31 80 c52 132 65 121 -123 117 -101 -2 -169 0 -181 7 -18
10 -62 114 -62 148 0 10 47 13 228 13 125 0 232 4 237 8 9 6 35 56 35 67 0 6
-621 11 -625 5z"/>
<path d="M1223 963 c-36 -7 -73 -59 -73 -103 0 -55 24 -78 104 -100 81 -23
116 -44 116 -69 0 -59 -136 -60 -155 -2 -5 16 -15 21 -41 21 -32 0 -35 -2 -29
-22 20 -66 69 -98 150 -98 97 0 156 55 141 133 -9 47 -29 62 -115 86 -81 22
-101 35 -101 61 0 49 83 60 128 17 33 -32 85 -38 76 -9 -26 79 -91 106 -201
85z"/>
<path d="M1470 781 l0 -181 35 0 35 0 0 89 c0 102 15 134 65 134 50 0 65 -32
65 -134 l0 -89 30 0 30 0 0 111 c0 109 0 111 -29 140 -38 37 -107 41 -137 8
-19 -21 -19 -21 -24 37 -5 58 -6 59 -37 62 l-33 3 0 -180z"/>
<path d="M1808 851 c-30 -27 -33 -34 -36 -102 -4 -94 16 -132 78 -149 99 -27
170 30 170 135 0 96 -45 145 -134 145 -36 0 -52 -6 -78 -29z m112 -31 c45 -24
47 -125 3 -160 -68 -53 -132 82 -68 145 27 27 37 30 65 15z"/>
<path d="M2115 864 c-16 -8 -34 -20 -40 -25 -5 -5 -12 -86 -15 -179 -5 -154
-3 -170 12 -170 42 0 48 10 48 78 l0 65 21 -19 c32 -28 100 -26 133 5 64 61
55 210 -15 247 -37 18 -106 18 -144 -2z m112 -60 c22 -22 25 -32 21 -76 -8
-79 -65 -105 -108 -50 -40 50 -9 152 47 152 7 0 25 -12 40 -26z"/>
</g>
</svg>
